<mxfile host="app.diagrams.net" modified="2023-05-05T14:58:17.194Z" agent="Mozilla/5.0 (Windows NT 10.0; Win64; x64) AppleWebKit/537.36 (KHTML, like Gecko) Chrome/112.0.0.0 Safari/537.36" etag="mjemOd_MzxAnUTjh4rXu" version="21.2.9" type="github">
  <diagram name="Page-1" id="fAPZaypw8L_g3WqXORPi">
    <mxGraphModel dx="2261" dy="740" grid="1" gridSize="10" guides="1" tooltips="1" connect="1" arrows="1" fold="1" page="1" pageScale="1" pageWidth="827" pageHeight="1169" math="0" shadow="0">
      <root>
        <mxCell id="0" />
        <mxCell id="1" parent="0" />
        <mxCell id="LsRqczpOVmUBsD9hHsLJ-1" value="Main" style="swimlane;fontStyle=1;align=center;verticalAlign=top;childLayout=stackLayout;horizontal=1;startSize=26;horizontalStack=0;resizeParent=1;resizeParentMax=0;resizeLast=0;collapsible=1;marginBottom=0;whiteSpace=wrap;html=1;" parent="1" vertex="1">
          <mxGeometry x="-280" y="110" width="320" height="86" as="geometry" />
        </mxCell>
        <mxCell id="LsRqczpOVmUBsD9hHsLJ-3" value="" style="line;strokeWidth=1;fillColor=none;align=left;verticalAlign=middle;spacingTop=-1;spacingLeft=3;spacingRight=3;rotatable=0;labelPosition=right;points=[];portConstraint=eastwest;strokeColor=inherit;" parent="LsRqczpOVmUBsD9hHsLJ-1" vertex="1">
          <mxGeometry y="26" width="320" height="8" as="geometry" />
        </mxCell>
        <mxCell id="nL2VVe4miJU1TSytE4Rh-1" value="+ logIn(String, String)" style="text;strokeColor=none;fillColor=none;align=left;verticalAlign=top;spacingLeft=4;spacingRight=4;overflow=hidden;rotatable=0;points=[[0,0.5],[1,0.5]];portConstraint=eastwest;whiteSpace=wrap;html=1;" parent="LsRqczpOVmUBsD9hHsLJ-1" vertex="1">
          <mxGeometry y="34" width="320" height="26" as="geometry" />
        </mxCell>
        <mxCell id="LsRqczpOVmUBsD9hHsLJ-67" value="+ logOut()" style="text;strokeColor=none;fillColor=none;align=left;verticalAlign=top;spacingLeft=4;spacingRight=4;overflow=hidden;rotatable=0;points=[[0,0.5],[1,0.5]];portConstraint=eastwest;whiteSpace=wrap;html=1;" parent="LsRqczpOVmUBsD9hHsLJ-1" vertex="1">
          <mxGeometry y="60" width="320" height="26" as="geometry" />
        </mxCell>
        <mxCell id="LsRqczpOVmUBsD9hHsLJ-5" value="Service" style="swimlane;fontStyle=1;align=center;verticalAlign=top;childLayout=stackLayout;horizontal=1;startSize=26;horizontalStack=0;resizeParent=1;resizeParentMax=0;resizeLast=0;collapsible=1;marginBottom=0;whiteSpace=wrap;html=1;" parent="1" vertex="1">
          <mxGeometry x="-280" y="438" width="320" height="342" as="geometry">
            <mxRectangle x="-110" y="160" width="80" height="30" as="alternateBounds" />
          </mxGeometry>
        </mxCell>
        <mxCell id="PwhYvPgTOWHuaIxJxPpf-1" value="&lt;div&gt;- SensorFunctions sensorFunctions&lt;/div&gt;" style="text;strokeColor=none;fillColor=none;align=left;verticalAlign=top;spacingLeft=4;spacingRight=4;overflow=hidden;rotatable=0;points=[[0,0.5],[1,0.5]];portConstraint=eastwest;whiteSpace=wrap;html=1;" parent="LsRqczpOVmUBsD9hHsLJ-5" vertex="1">
          <mxGeometry y="26" width="320" height="26" as="geometry" />
        </mxCell>
        <mxCell id="PwhYvPgTOWHuaIxJxPpf-2" value="&lt;div&gt;- UserFunctions userFunctions&lt;br&gt;&lt;/div&gt;&lt;div&gt;&lt;br&gt;&lt;/div&gt;" style="text;strokeColor=none;fillColor=none;align=left;verticalAlign=top;spacingLeft=4;spacingRight=4;overflow=hidden;rotatable=0;points=[[0,0.5],[1,0.5]];portConstraint=eastwest;whiteSpace=wrap;html=1;" parent="LsRqczpOVmUBsD9hHsLJ-5" vertex="1">
          <mxGeometry y="52" width="320" height="26" as="geometry" />
        </mxCell>
        <mxCell id="PwhYvPgTOWHuaIxJxPpf-3" value="&lt;div&gt;- ProviderFunctions providerFunctions&lt;br&gt;&lt;/div&gt;&lt;div&gt;&lt;br&gt;&lt;/div&gt;" style="text;strokeColor=none;fillColor=none;align=left;verticalAlign=top;spacingLeft=4;spacingRight=4;overflow=hidden;rotatable=0;points=[[0,0.5],[1,0.5]];portConstraint=eastwest;whiteSpace=wrap;html=1;" parent="LsRqczpOVmUBsD9hHsLJ-5" vertex="1">
          <mxGeometry y="78" width="320" height="26" as="geometry" />
        </mxCell>
        <mxCell id="LsRqczpOVmUBsD9hHsLJ-7" value="" style="line;strokeWidth=1;fillColor=none;align=left;verticalAlign=middle;spacingTop=-1;spacingLeft=3;spacingRight=3;rotatable=0;labelPosition=right;points=[];portConstraint=eastwest;strokeColor=inherit;" parent="LsRqczpOVmUBsD9hHsLJ-5" vertex="1">
          <mxGeometry y="104" width="320" height="8" as="geometry" />
        </mxCell>
        <mxCell id="LsRqczpOVmUBsD9hHsLJ-55" value="&lt;div&gt;+ loadFromDatabase()&lt;/div&gt;&lt;div&gt;&lt;br&gt;&lt;/div&gt;" style="text;strokeColor=none;fillColor=none;align=left;verticalAlign=top;spacingLeft=4;spacingRight=4;overflow=hidden;rotatable=0;points=[[0,0.5],[1,0.5]];portConstraint=eastwest;whiteSpace=wrap;html=1;" parent="LsRqczpOVmUBsD9hHsLJ-5" vertex="1">
          <mxGeometry y="112" width="320" height="26" as="geometry" />
        </mxCell>
        <mxCell id="LsRqczpOVmUBsD9hHsLJ-8" value="&lt;div&gt;+ markUser(string)&lt;/div&gt;&lt;div&gt;&lt;br&gt;&lt;/div&gt;" style="text;strokeColor=none;fillColor=none;align=left;verticalAlign=top;spacingLeft=4;spacingRight=4;overflow=hidden;rotatable=0;points=[[0,0.5],[1,0.5]];portConstraint=eastwest;whiteSpace=wrap;html=1;" parent="LsRqczpOVmUBsD9hHsLJ-5" vertex="1">
          <mxGeometry y="138" width="320" height="26" as="geometry" />
        </mxCell>
        <mxCell id="LsRqczpOVmUBsD9hHsLJ-69" value="&amp;nbsp;+ getPoints(string): int" style="text;whiteSpace=wrap;html=1;" parent="LsRqczpOVmUBsD9hHsLJ-5" vertex="1">
          <mxGeometry y="164" width="320" height="24" as="geometry" />
        </mxCell>
        <mxCell id="LsRqczpOVmUBsD9hHsLJ-82" value="&amp;nbsp;+ meanAirQualityArea(float, float, float, date, date): float&amp;nbsp;" style="text;whiteSpace=wrap;html=1;" parent="LsRqczpOVmUBsD9hHsLJ-5" vertex="1">
          <mxGeometry y="188" width="320" height="26" as="geometry" />
        </mxCell>
        <mxCell id="LsRqczpOVmUBsD9hHsLJ-84" value="+ instantAirQuality(float, float, float, date): float" style="text;strokeColor=none;fillColor=none;align=left;verticalAlign=top;spacingLeft=4;spacingRight=4;overflow=hidden;rotatable=0;points=[[0,0.5],[1,0.5]];portConstraint=eastwest;whiteSpace=wrap;html=1;" parent="LsRqczpOVmUBsD9hHsLJ-5" vertex="1">
          <mxGeometry y="214" width="320" height="24" as="geometry" />
        </mxCell>
        <mxCell id="LsRqczpOVmUBsD9hHsLJ-66" value="+ studyAirCleaner(string): float[]" style="text;strokeColor=none;fillColor=none;align=left;verticalAlign=top;spacingLeft=4;spacingRight=4;overflow=hidden;rotatable=0;points=[[0,0.5],[1,0.5]];portConstraint=eastwest;whiteSpace=wrap;html=1;" parent="LsRqczpOVmUBsD9hHsLJ-5" vertex="1">
          <mxGeometry y="238" width="320" height="26" as="geometry" />
        </mxCell>
        <mxCell id="LsRqczpOVmUBsD9hHsLJ-85" value="+ analyseOneSensor(): float" style="text;strokeColor=none;fillColor=none;align=left;verticalAlign=top;spacingLeft=4;spacingRight=4;overflow=hidden;rotatable=0;points=[[0,0.5],[1,0.5]];portConstraint=eastwest;whiteSpace=wrap;html=1;" parent="LsRqczpOVmUBsD9hHsLJ-5" vertex="1">
          <mxGeometry y="264" width="320" height="26" as="geometry" />
        </mxCell>
        <mxCell id="LsRqczpOVmUBsD9hHsLJ-63" value="+ checkData(): pair&amp;lt;string,float&amp;gt;[]" style="text;strokeColor=none;fillColor=none;align=left;verticalAlign=top;spacingLeft=4;spacingRight=4;overflow=hidden;rotatable=0;points=[[0,0.5],[1,0.5]];portConstraint=eastwest;whiteSpace=wrap;html=1;" parent="LsRqczpOVmUBsD9hHsLJ-5" vertex="1">
          <mxGeometry y="290" width="320" height="26" as="geometry" />
        </mxCell>
        <mxCell id="LsRqczpOVmUBsD9hHsLJ-70" value="&amp;nbsp;+ compareOneSensor(Sensor, date, date): Sensor[]" style="text;whiteSpace=wrap;html=1;" parent="LsRqczpOVmUBsD9hHsLJ-5" vertex="1">
          <mxGeometry y="316" width="320" height="26" as="geometry" />
        </mxCell>
        <mxCell id="LsRqczpOVmUBsD9hHsLJ-13" value="Measurements" style="swimlane;fontStyle=1;align=center;verticalAlign=top;childLayout=stackLayout;horizontal=1;startSize=26;horizontalStack=0;resizeParent=1;resizeParentMax=0;resizeLast=0;collapsible=1;marginBottom=0;whiteSpace=wrap;html=1;" parent="1" vertex="1">
          <mxGeometry x="440" y="660" width="200" height="230" as="geometry" />
        </mxCell>
        <mxCell id="LsRqczpOVmUBsD9hHsLJ-14" value="&lt;div&gt;- timestamp:date&lt;/div&gt;" style="text;strokeColor=none;fillColor=none;align=left;verticalAlign=top;spacingLeft=4;spacingRight=4;overflow=hidden;rotatable=0;points=[[0,0.5],[1,0.5]];portConstraint=eastwest;whiteSpace=wrap;html=1;" parent="LsRqczpOVmUBsD9hHsLJ-13" vertex="1">
          <mxGeometry y="26" width="200" height="26" as="geometry" />
        </mxCell>
        <mxCell id="LsRqczpOVmUBsD9hHsLJ-17" value="&lt;div&gt;- sensorId: string&lt;br&gt;&lt;/div&gt;" style="text;strokeColor=none;fillColor=none;align=left;verticalAlign=top;spacingLeft=4;spacingRight=4;overflow=hidden;rotatable=0;points=[[0,0.5],[1,0.5]];portConstraint=eastwest;whiteSpace=wrap;html=1;" parent="LsRqczpOVmUBsD9hHsLJ-13" vertex="1">
          <mxGeometry y="52" width="200" height="26" as="geometry" />
        </mxCell>
        <mxCell id="LsRqczpOVmUBsD9hHsLJ-27" value="&lt;div&gt;- valueO3: float&lt;/div&gt;" style="text;strokeColor=none;fillColor=none;align=left;verticalAlign=top;spacingLeft=4;spacingRight=4;overflow=hidden;rotatable=0;points=[[0,0.5],[1,0.5]];portConstraint=eastwest;whiteSpace=wrap;html=1;" parent="LsRqczpOVmUBsD9hHsLJ-13" vertex="1">
          <mxGeometry y="78" width="200" height="26" as="geometry" />
        </mxCell>
        <mxCell id="LsRqczpOVmUBsD9hHsLJ-29" value="&lt;div&gt;- valueNO2: float&lt;/div&gt;" style="text;strokeColor=none;fillColor=none;align=left;verticalAlign=top;spacingLeft=4;spacingRight=4;overflow=hidden;rotatable=0;points=[[0,0.5],[1,0.5]];portConstraint=eastwest;whiteSpace=wrap;html=1;" parent="LsRqczpOVmUBsD9hHsLJ-13" vertex="1">
          <mxGeometry y="104" width="200" height="26" as="geometry" />
        </mxCell>
        <mxCell id="LsRqczpOVmUBsD9hHsLJ-30" value="&lt;div&gt;- valueSO2: float&lt;/div&gt;" style="text;strokeColor=none;fillColor=none;align=left;verticalAlign=top;spacingLeft=4;spacingRight=4;overflow=hidden;rotatable=0;points=[[0,0.5],[1,0.5]];portConstraint=eastwest;whiteSpace=wrap;html=1;" parent="LsRqczpOVmUBsD9hHsLJ-13" vertex="1">
          <mxGeometry y="130" width="200" height="26" as="geometry" />
        </mxCell>
        <mxCell id="LsRqczpOVmUBsD9hHsLJ-32" value="&lt;div&gt;- valuePM10: float&lt;/div&gt;" style="text;strokeColor=none;fillColor=none;align=left;verticalAlign=top;spacingLeft=4;spacingRight=4;overflow=hidden;rotatable=0;points=[[0,0.5],[1,0.5]];portConstraint=eastwest;whiteSpace=wrap;html=1;" parent="LsRqczpOVmUBsD9hHsLJ-13" vertex="1">
          <mxGeometry y="156" width="200" height="26" as="geometry" />
        </mxCell>
        <mxCell id="LsRqczpOVmUBsD9hHsLJ-15" value="" style="line;strokeWidth=1;fillColor=none;align=left;verticalAlign=middle;spacingTop=-1;spacingLeft=3;spacingRight=3;rotatable=0;labelPosition=right;points=[];portConstraint=eastwest;strokeColor=inherit;" parent="LsRqczpOVmUBsD9hHsLJ-13" vertex="1">
          <mxGeometry y="182" width="200" height="2" as="geometry" />
        </mxCell>
        <mxCell id="LsRqczpOVmUBsD9hHsLJ-18" value="+ Measurement(date, string, float, float, float, float)" style="text;strokeColor=none;fillColor=none;align=left;verticalAlign=top;spacingLeft=4;spacingRight=4;overflow=hidden;rotatable=0;points=[[0,0.5],[1,0.5]];portConstraint=eastwest;whiteSpace=wrap;html=1;" parent="LsRqczpOVmUBsD9hHsLJ-13" vertex="1">
          <mxGeometry y="184" width="200" height="46" as="geometry" />
        </mxCell>
        <mxCell id="LsRqczpOVmUBsD9hHsLJ-21" value="Sensor" style="swimlane;fontStyle=1;align=center;verticalAlign=top;childLayout=stackLayout;horizontal=1;startSize=26;horizontalStack=0;resizeParent=1;resizeParentMax=0;resizeLast=0;collapsible=1;marginBottom=0;whiteSpace=wrap;html=1;" parent="1" vertex="1">
          <mxGeometry x="440" y="376" width="200" height="226" as="geometry" />
        </mxCell>
        <mxCell id="LsRqczpOVmUBsD9hHsLJ-22" value="&lt;div&gt;- id: string&lt;/div&gt;" style="text;strokeColor=none;fillColor=none;align=left;verticalAlign=top;spacingLeft=4;spacingRight=4;overflow=hidden;rotatable=0;points=[[0,0.5],[1,0.5]];portConstraint=eastwest;whiteSpace=wrap;html=1;" parent="LsRqczpOVmUBsD9hHsLJ-21" vertex="1">
          <mxGeometry y="26" width="200" height="26" as="geometry" />
        </mxCell>
        <mxCell id="LsRqczpOVmUBsD9hHsLJ-23" value="&lt;div&gt;- latitude: float&lt;/div&gt;" style="text;strokeColor=none;fillColor=none;align=left;verticalAlign=top;spacingLeft=4;spacingRight=4;overflow=hidden;rotatable=0;points=[[0,0.5],[1,0.5]];portConstraint=eastwest;whiteSpace=wrap;html=1;" parent="LsRqczpOVmUBsD9hHsLJ-21" vertex="1">
          <mxGeometry y="52" width="200" height="26" as="geometry" />
        </mxCell>
        <mxCell id="LsRqczpOVmUBsD9hHsLJ-24" value="&lt;div&gt;- longitude: float&lt;/div&gt;" style="text;strokeColor=none;fillColor=none;align=left;verticalAlign=top;spacingLeft=4;spacingRight=4;overflow=hidden;rotatable=0;points=[[0,0.5],[1,0.5]];portConstraint=eastwest;whiteSpace=wrap;html=1;" parent="LsRqczpOVmUBsD9hHsLJ-21" vertex="1">
          <mxGeometry y="78" width="200" height="26" as="geometry" />
        </mxCell>
        <mxCell id="LsRqczpOVmUBsD9hHsLJ-59" value="- good: boolean" style="text;strokeColor=none;fillColor=none;align=left;verticalAlign=top;spacingLeft=4;spacingRight=4;overflow=hidden;rotatable=0;points=[[0,0.5],[1,0.5]];portConstraint=eastwest;whiteSpace=wrap;html=1;" parent="LsRqczpOVmUBsD9hHsLJ-21" vertex="1">
          <mxGeometry y="104" width="200" height="26" as="geometry" />
        </mxCell>
        <mxCell id="LsRqczpOVmUBsD9hHsLJ-108" value="&lt;div&gt;- measurements: Measurement[]&lt;br&gt;&lt;/div&gt;" style="text;strokeColor=none;fillColor=none;align=left;verticalAlign=top;spacingLeft=4;spacingRight=4;overflow=hidden;rotatable=0;points=[[0,0.5],[1,0.5]];portConstraint=eastwest;whiteSpace=wrap;html=1;" parent="LsRqczpOVmUBsD9hHsLJ-21" vertex="1">
          <mxGeometry y="130" width="200" height="26" as="geometry" />
        </mxCell>
        <mxCell id="LsRqczpOVmUBsD9hHsLJ-25" value="" style="line;strokeWidth=1;fillColor=none;align=left;verticalAlign=middle;spacingTop=-1;spacingLeft=3;spacingRight=3;rotatable=0;labelPosition=right;points=[];portConstraint=eastwest;strokeColor=inherit;" parent="LsRqczpOVmUBsD9hHsLJ-21" vertex="1">
          <mxGeometry y="156" width="200" height="2" as="geometry" />
        </mxCell>
        <mxCell id="LsRqczpOVmUBsD9hHsLJ-80" value="+ Sensor(string, float, float)" style="text;strokeColor=none;fillColor=none;align=left;verticalAlign=top;spacingLeft=4;spacingRight=4;overflow=hidden;rotatable=0;points=[[0,0.5],[1,0.5]];portConstraint=eastwest;whiteSpace=wrap;html=1;" parent="LsRqczpOVmUBsD9hHsLJ-21" vertex="1">
          <mxGeometry y="158" width="200" height="22" as="geometry" />
        </mxCell>
        <mxCell id="l_3ByBFCw-EJSropsq6U-11" value="+ addMeasurement(Measurement)" style="text;strokeColor=none;fillColor=none;align=left;verticalAlign=top;spacingLeft=4;spacingRight=4;overflow=hidden;rotatable=0;points=[[0,0.5],[1,0.5]];portConstraint=eastwest;whiteSpace=wrap;html=1;" parent="LsRqczpOVmUBsD9hHsLJ-21" vertex="1">
          <mxGeometry y="180" width="200" height="20" as="geometry" />
        </mxCell>
        <mxCell id="l_3ByBFCw-EJSropsq6U-9" value="+ setBad()" style="text;strokeColor=none;fillColor=none;align=left;verticalAlign=top;spacingLeft=4;spacingRight=4;overflow=hidden;rotatable=0;points=[[0,0.5],[1,0.5]];portConstraint=eastwest;whiteSpace=wrap;html=1;" parent="LsRqczpOVmUBsD9hHsLJ-21" vertex="1">
          <mxGeometry y="200" width="200" height="26" as="geometry" />
        </mxCell>
        <mxCell id="LsRqczpOVmUBsD9hHsLJ-39" value="User" style="swimlane;fontStyle=1;align=center;verticalAlign=top;childLayout=stackLayout;horizontal=1;startSize=26;horizontalStack=0;resizeParent=1;resizeParentMax=0;resizeLast=0;collapsible=1;marginBottom=0;whiteSpace=wrap;html=1;" parent="1" vertex="1">
          <mxGeometry x="440" y="80" width="200" height="236" as="geometry" />
        </mxCell>
        <mxCell id="LsRqczpOVmUBsD9hHsLJ-40" value="&lt;div&gt;- id: string&lt;/div&gt;" style="text;strokeColor=none;fillColor=none;align=left;verticalAlign=top;spacingLeft=4;spacingRight=4;overflow=hidden;rotatable=0;points=[[0,0.5],[1,0.5]];portConstraint=eastwest;whiteSpace=wrap;html=1;" parent="LsRqczpOVmUBsD9hHsLJ-39" vertex="1">
          <mxGeometry y="26" width="200" height="26" as="geometry" />
        </mxCell>
        <mxCell id="LsRqczpOVmUBsD9hHsLJ-41" value="- sensorId: string[]" style="text;strokeColor=none;fillColor=none;align=left;verticalAlign=top;spacingLeft=4;spacingRight=4;overflow=hidden;rotatable=0;points=[[0,0.5],[1,0.5]];portConstraint=eastwest;whiteSpace=wrap;html=1;" parent="LsRqczpOVmUBsD9hHsLJ-39" vertex="1">
          <mxGeometry y="52" width="200" height="26" as="geometry" />
        </mxCell>
        <mxCell id="LsRqczpOVmUBsD9hHsLJ-58" value="- good: boolean" style="text;strokeColor=none;fillColor=none;align=left;verticalAlign=top;spacingLeft=4;spacingRight=4;overflow=hidden;rotatable=0;points=[[0,0.5],[1,0.5]];portConstraint=eastwest;whiteSpace=wrap;html=1;" parent="LsRqczpOVmUBsD9hHsLJ-39" vertex="1">
          <mxGeometry y="78" width="200" height="26" as="geometry" />
        </mxCell>
        <mxCell id="LsRqczpOVmUBsD9hHsLJ-71" value="- points: int" style="text;strokeColor=none;fillColor=none;align=left;verticalAlign=top;spacingLeft=4;spacingRight=4;overflow=hidden;rotatable=0;points=[[0,0.5],[1,0.5]];portConstraint=eastwest;whiteSpace=wrap;html=1;" parent="LsRqczpOVmUBsD9hHsLJ-39" vertex="1">
          <mxGeometry y="104" width="200" height="26" as="geometry" />
        </mxCell>
        <mxCell id="LsRqczpOVmUBsD9hHsLJ-43" value="" style="line;strokeWidth=1;fillColor=none;align=left;verticalAlign=middle;spacingTop=-1;spacingLeft=3;spacingRight=3;rotatable=0;labelPosition=right;points=[];portConstraint=eastwest;strokeColor=inherit;" parent="LsRqczpOVmUBsD9hHsLJ-39" vertex="1">
          <mxGeometry y="130" width="200" height="2" as="geometry" />
        </mxCell>
        <mxCell id="l_3ByBFCw-EJSropsq6U-5" value="+ User(string, int)" style="text;strokeColor=none;fillColor=none;align=left;verticalAlign=top;spacingLeft=4;spacingRight=4;overflow=hidden;rotatable=0;points=[[0,0.5],[1,0.5]];portConstraint=eastwest;whiteSpace=wrap;html=1;" parent="LsRqczpOVmUBsD9hHsLJ-39" vertex="1">
          <mxGeometry y="132" width="200" height="26" as="geometry" />
        </mxCell>
        <mxCell id="l_3ByBFCw-EJSropsq6U-10" value="+ incrementPoints(int)" style="text;strokeColor=none;fillColor=none;align=left;verticalAlign=top;spacingLeft=4;spacingRight=4;overflow=hidden;rotatable=0;points=[[0,0.5],[1,0.5]];portConstraint=eastwest;whiteSpace=wrap;html=1;" parent="LsRqczpOVmUBsD9hHsLJ-39" vertex="1">
          <mxGeometry y="158" width="200" height="26" as="geometry" />
        </mxCell>
        <mxCell id="LsRqczpOVmUBsD9hHsLJ-44" value="+ addSensor(Sensor)" style="text;strokeColor=none;fillColor=none;align=left;verticalAlign=top;spacingLeft=4;spacingRight=4;overflow=hidden;rotatable=0;points=[[0,0.5],[1,0.5]];portConstraint=eastwest;whiteSpace=wrap;html=1;" parent="LsRqczpOVmUBsD9hHsLJ-39" vertex="1">
          <mxGeometry y="184" width="200" height="26" as="geometry" />
        </mxCell>
        <mxCell id="LsRqczpOVmUBsD9hHsLJ-79" value="+ setBad()" style="text;strokeColor=none;fillColor=none;align=left;verticalAlign=top;spacingLeft=4;spacingRight=4;overflow=hidden;rotatable=0;points=[[0,0.5],[1,0.5]];portConstraint=eastwest;whiteSpace=wrap;html=1;" parent="LsRqczpOVmUBsD9hHsLJ-39" vertex="1">
          <mxGeometry y="210" width="200" height="26" as="geometry" />
        </mxCell>
        <mxCell id="LsRqczpOVmUBsD9hHsLJ-45" value="Cleaner" style="swimlane;fontStyle=1;align=center;verticalAlign=top;childLayout=stackLayout;horizontal=1;startSize=26;horizontalStack=0;resizeParent=1;resizeParentMax=0;resizeLast=0;collapsible=1;marginBottom=0;whiteSpace=wrap;html=1;" parent="1" vertex="1">
          <mxGeometry x="440" y="920" width="200" height="200" as="geometry" />
        </mxCell>
        <mxCell id="LsRqczpOVmUBsD9hHsLJ-46" value="&lt;div&gt;- id:string&lt;/div&gt;" style="text;strokeColor=none;fillColor=none;align=left;verticalAlign=top;spacingLeft=4;spacingRight=4;overflow=hidden;rotatable=0;points=[[0,0.5],[1,0.5]];portConstraint=eastwest;whiteSpace=wrap;html=1;" parent="LsRqczpOVmUBsD9hHsLJ-45" vertex="1">
          <mxGeometry y="26" width="200" height="26" as="geometry" />
        </mxCell>
        <mxCell id="LsRqczpOVmUBsD9hHsLJ-47" value="&lt;div&gt;- latitude: float&lt;/div&gt;" style="text;strokeColor=none;fillColor=none;align=left;verticalAlign=top;spacingLeft=4;spacingRight=4;overflow=hidden;rotatable=0;points=[[0,0.5],[1,0.5]];portConstraint=eastwest;whiteSpace=wrap;html=1;" parent="LsRqczpOVmUBsD9hHsLJ-45" vertex="1">
          <mxGeometry y="52" width="200" height="26" as="geometry" />
        </mxCell>
        <mxCell id="LsRqczpOVmUBsD9hHsLJ-48" value="&lt;div&gt;- longitude: float&lt;/div&gt;" style="text;strokeColor=none;fillColor=none;align=left;verticalAlign=top;spacingLeft=4;spacingRight=4;overflow=hidden;rotatable=0;points=[[0,0.5],[1,0.5]];portConstraint=eastwest;whiteSpace=wrap;html=1;" parent="LsRqczpOVmUBsD9hHsLJ-45" vertex="1">
          <mxGeometry y="78" width="200" height="26" as="geometry" />
        </mxCell>
        <mxCell id="LsRqczpOVmUBsD9hHsLJ-51" value="&lt;div&gt;- timestampStart: date&lt;br&gt;&lt;/div&gt;" style="text;strokeColor=none;fillColor=none;align=left;verticalAlign=top;spacingLeft=4;spacingRight=4;overflow=hidden;rotatable=0;points=[[0,0.5],[1,0.5]];portConstraint=eastwest;whiteSpace=wrap;html=1;" parent="LsRqczpOVmUBsD9hHsLJ-45" vertex="1">
          <mxGeometry y="104" width="200" height="26" as="geometry" />
        </mxCell>
        <mxCell id="LsRqczpOVmUBsD9hHsLJ-52" value="&lt;div&gt;- timestampEnd: date&lt;/div&gt;" style="text;strokeColor=none;fillColor=none;align=left;verticalAlign=top;spacingLeft=4;spacingRight=4;overflow=hidden;rotatable=0;points=[[0,0.5],[1,0.5]];portConstraint=eastwest;whiteSpace=wrap;html=1;" parent="LsRqczpOVmUBsD9hHsLJ-45" vertex="1">
          <mxGeometry y="130" width="200" height="26" as="geometry" />
        </mxCell>
        <mxCell id="LsRqczpOVmUBsD9hHsLJ-49" value="" style="line;strokeWidth=1;fillColor=none;align=left;verticalAlign=middle;spacingTop=-1;spacingLeft=3;spacingRight=3;rotatable=0;labelPosition=right;points=[];portConstraint=eastwest;strokeColor=inherit;" parent="LsRqczpOVmUBsD9hHsLJ-45" vertex="1">
          <mxGeometry y="156" width="200" height="2" as="geometry" />
        </mxCell>
        <mxCell id="LsRqczpOVmUBsD9hHsLJ-50" value="+ Cleaner(string, float, float, date, date)" style="text;strokeColor=none;fillColor=none;align=left;verticalAlign=top;spacingLeft=4;spacingRight=4;overflow=hidden;rotatable=0;points=[[0,0.5],[1,0.5]];portConstraint=eastwest;whiteSpace=wrap;html=1;" parent="LsRqczpOVmUBsD9hHsLJ-45" vertex="1">
          <mxGeometry y="158" width="200" height="42" as="geometry" />
        </mxCell>
        <mxCell id="LsRqczpOVmUBsD9hHsLJ-87" value="" style="endArrow=open;endFill=1;endSize=12;html=1;rounded=0;entryX=0.5;entryY=0;entryDx=0;entryDy=0;" parent="1" source="LsRqczpOVmUBsD9hHsLJ-67" target="LsRqczpOVmUBsD9hHsLJ-5" edge="1">
          <mxGeometry width="160" relative="1" as="geometry">
            <mxPoint x="210" y="230" as="sourcePoint" />
            <mxPoint x="370" y="230" as="targetPoint" />
          </mxGeometry>
        </mxCell>
        <mxCell id="LsRqczpOVmUBsD9hHsLJ-99" value="ProviderFunctions" style="swimlane;fontStyle=1;align=center;verticalAlign=top;childLayout=stackLayout;horizontal=1;startSize=26;horizontalStack=0;resizeParent=1;resizeParentMax=0;resizeLast=0;collapsible=1;marginBottom=0;whiteSpace=wrap;html=1;" parent="1" vertex="1">
          <mxGeometry x="80" y="780" width="320" height="110" as="geometry" />
        </mxCell>
        <mxCell id="LsRqczpOVmUBsD9hHsLJ-103" value="- providers: List&amp;lt;Provider&amp;gt;" style="text;strokeColor=none;fillColor=none;align=left;verticalAlign=top;spacingLeft=4;spacingRight=4;overflow=hidden;rotatable=0;points=[[0,0.5],[1,0.5]];portConstraint=eastwest;whiteSpace=wrap;html=1;" parent="LsRqczpOVmUBsD9hHsLJ-99" vertex="1">
          <mxGeometry y="26" width="320" height="26" as="geometry" />
        </mxCell>
        <mxCell id="LsRqczpOVmUBsD9hHsLJ-101" value="" style="line;strokeWidth=1;fillColor=none;align=left;verticalAlign=middle;spacingTop=-1;spacingLeft=3;spacingRight=3;rotatable=0;labelPosition=right;points=[];portConstraint=eastwest;strokeColor=inherit;" parent="LsRqczpOVmUBsD9hHsLJ-99" vertex="1">
          <mxGeometry y="52" width="320" height="8" as="geometry" />
        </mxCell>
        <mxCell id="BAfHyfRvFIGASAnH4QNc-21" value="&lt;div&gt;+ loadFromDatabase()&lt;/div&gt;" style="text;strokeColor=none;fillColor=none;align=left;verticalAlign=top;spacingLeft=4;spacingRight=4;overflow=hidden;rotatable=0;points=[[0,0.5],[1,0.5]];portConstraint=eastwest;whiteSpace=wrap;html=1;" parent="LsRqczpOVmUBsD9hHsLJ-99" vertex="1">
          <mxGeometry y="60" width="320" height="26" as="geometry" />
        </mxCell>
        <mxCell id="LsRqczpOVmUBsD9hHsLJ-139" value="+ studyAirCleaner(string): float[]" style="text;strokeColor=none;fillColor=none;align=left;verticalAlign=top;spacingLeft=4;spacingRight=4;overflow=hidden;rotatable=0;points=[[0,0.5],[1,0.5]];portConstraint=eastwest;whiteSpace=wrap;html=1;" parent="LsRqczpOVmUBsD9hHsLJ-99" vertex="1">
          <mxGeometry y="86" width="320" height="24" as="geometry" />
        </mxCell>
        <mxCell id="LsRqczpOVmUBsD9hHsLJ-104" value="SensorFunctions" style="swimlane;fontStyle=1;align=center;verticalAlign=top;childLayout=stackLayout;horizontal=1;startSize=26;horizontalStack=0;resizeParent=1;resizeParentMax=0;resizeLast=0;collapsible=1;marginBottom=0;whiteSpace=wrap;html=1;" parent="1" vertex="1">
          <mxGeometry x="80" y="480" width="320" height="254" as="geometry" />
        </mxCell>
        <mxCell id="LsRqczpOVmUBsD9hHsLJ-105" value="- sensors: List&amp;lt;Sensor&amp;gt;" style="text;strokeColor=none;fillColor=none;align=left;verticalAlign=top;spacingLeft=4;spacingRight=4;overflow=hidden;rotatable=0;points=[[0,0.5],[1,0.5]];portConstraint=eastwest;whiteSpace=wrap;html=1;" parent="LsRqczpOVmUBsD9hHsLJ-104" vertex="1">
          <mxGeometry y="26" width="320" height="26" as="geometry" />
        </mxCell>
        <mxCell id="LsRqczpOVmUBsD9hHsLJ-106" value="" style="line;strokeWidth=1;fillColor=none;align=left;verticalAlign=middle;spacingTop=-1;spacingLeft=3;spacingRight=3;rotatable=0;labelPosition=right;points=[];portConstraint=eastwest;strokeColor=inherit;" parent="LsRqczpOVmUBsD9hHsLJ-104" vertex="1">
          <mxGeometry y="52" width="320" height="8" as="geometry" />
        </mxCell>
        <mxCell id="LsRqczpOVmUBsD9hHsLJ-113" value="&lt;div&gt;+ loadFromDatabase()&lt;/div&gt;" style="text;strokeColor=none;fillColor=none;align=left;verticalAlign=top;spacingLeft=4;spacingRight=4;overflow=hidden;rotatable=0;points=[[0,0.5],[1,0.5]];portConstraint=eastwest;whiteSpace=wrap;html=1;" parent="LsRqczpOVmUBsD9hHsLJ-104" vertex="1">
          <mxGeometry y="60" width="320" height="26" as="geometry" />
        </mxCell>
        <mxCell id="LsRqczpOVmUBsD9hHsLJ-65" value="&amp;nbsp;+ searchSurrounding(float): Sensor[]" style="text;whiteSpace=wrap;html=1;" parent="LsRqczpOVmUBsD9hHsLJ-104" vertex="1">
          <mxGeometry y="86" width="320" height="24" as="geometry" />
        </mxCell>
        <mxCell id="LsRqczpOVmUBsD9hHsLJ-116" value="&lt;div&gt;+ void markSensor()&lt;/div&gt;" style="text;strokeColor=none;fillColor=none;align=left;verticalAlign=top;spacingLeft=4;spacingRight=4;overflow=hidden;rotatable=0;points=[[0,0.5],[1,0.5]];portConstraint=eastwest;whiteSpace=wrap;html=1;" parent="LsRqczpOVmUBsD9hHsLJ-104" vertex="1">
          <mxGeometry y="110" width="320" height="26" as="geometry" />
        </mxCell>
        <mxCell id="LsRqczpOVmUBsD9hHsLJ-137" value="&amp;nbsp;+ meanAirQualityArea(float, float, float, date, date): float" style="text;whiteSpace=wrap;html=1;" parent="LsRqczpOVmUBsD9hHsLJ-104" vertex="1">
          <mxGeometry y="136" width="320" height="28" as="geometry" />
        </mxCell>
        <mxCell id="LsRqczpOVmUBsD9hHsLJ-138" value="+ instantAirQuality(float, float, float, date): float" style="text;strokeColor=none;fillColor=none;align=left;verticalAlign=top;spacingLeft=4;spacingRight=4;overflow=hidden;rotatable=0;points=[[0,0.5],[1,0.5]];portConstraint=eastwest;whiteSpace=wrap;html=1;" parent="LsRqczpOVmUBsD9hHsLJ-104" vertex="1">
          <mxGeometry y="164" width="320" height="30" as="geometry" />
        </mxCell>
        <mxCell id="LsRqczpOVmUBsD9hHsLJ-140" value="+ analyseOneSensor(int): list&amp;lt;Measurement&amp;gt;" style="text;strokeColor=none;fillColor=none;align=left;verticalAlign=top;spacingLeft=4;spacingRight=4;overflow=hidden;rotatable=0;points=[[0,0.5],[1,0.5]];portConstraint=eastwest;whiteSpace=wrap;html=1;" parent="LsRqczpOVmUBsD9hHsLJ-104" vertex="1">
          <mxGeometry y="194" width="320" height="26" as="geometry" />
        </mxCell>
        <mxCell id="LsRqczpOVmUBsD9hHsLJ-142" value="&amp;nbsp;+ compareOneSensor(Sensor, date, date): Sensor[]" style="text;whiteSpace=wrap;html=1;" parent="LsRqczpOVmUBsD9hHsLJ-104" vertex="1">
          <mxGeometry y="220" width="320" height="34" as="geometry" />
        </mxCell>
        <mxCell id="LsRqczpOVmUBsD9hHsLJ-109" value="UserFunctions" style="swimlane;fontStyle=1;align=center;verticalAlign=top;childLayout=stackLayout;horizontal=1;startSize=26;horizontalStack=0;resizeParent=1;resizeParentMax=0;resizeLast=0;collapsible=1;marginBottom=0;whiteSpace=wrap;html=1;" parent="1" vertex="1">
          <mxGeometry x="80" y="248" width="320" height="190" as="geometry" />
        </mxCell>
        <mxCell id="LsRqczpOVmUBsD9hHsLJ-110" value="- users: List&amp;lt;User&amp;gt;" style="text;strokeColor=none;fillColor=none;align=left;verticalAlign=top;spacingLeft=4;spacingRight=4;overflow=hidden;rotatable=0;points=[[0,0.5],[1,0.5]];portConstraint=eastwest;whiteSpace=wrap;html=1;" parent="LsRqczpOVmUBsD9hHsLJ-109" vertex="1">
          <mxGeometry y="26" width="320" height="26" as="geometry" />
        </mxCell>
        <mxCell id="LsRqczpOVmUBsD9hHsLJ-111" value="" style="line;strokeWidth=1;fillColor=none;align=left;verticalAlign=middle;spacingTop=-1;spacingLeft=3;spacingRight=3;rotatable=0;labelPosition=right;points=[];portConstraint=eastwest;strokeColor=inherit;" parent="LsRqczpOVmUBsD9hHsLJ-109" vertex="1">
          <mxGeometry y="52" width="320" height="8" as="geometry" />
        </mxCell>
        <mxCell id="LsRqczpOVmUBsD9hHsLJ-114" value="&lt;div&gt;+ void loadFromDatabase()&lt;/div&gt;" style="text;strokeColor=none;fillColor=none;align=left;verticalAlign=top;spacingLeft=4;spacingRight=4;overflow=hidden;rotatable=0;points=[[0,0.5],[1,0.5]];portConstraint=eastwest;whiteSpace=wrap;html=1;" parent="LsRqczpOVmUBsD9hHsLJ-109" vertex="1">
          <mxGeometry y="60" width="320" height="26" as="geometry" />
        </mxCell>
        <mxCell id="LsRqczpOVmUBsD9hHsLJ-112" value="+ method(type): type" style="text;strokeColor=none;fillColor=none;align=left;verticalAlign=top;spacingLeft=4;spacingRight=4;overflow=hidden;rotatable=0;points=[[0,0.5],[1,0.5]];portConstraint=eastwest;whiteSpace=wrap;html=1;" parent="LsRqczpOVmUBsD9hHsLJ-109" vertex="1">
          <mxGeometry y="86" width="320" height="26" as="geometry" />
        </mxCell>
        <mxCell id="LsRqczpOVmUBsD9hHsLJ-115" value="&lt;div&gt;+ markUser()&lt;/div&gt;&lt;div&gt;&lt;br&gt;&lt;/div&gt;" style="text;strokeColor=none;fillColor=none;align=left;verticalAlign=top;spacingLeft=4;spacingRight=4;overflow=hidden;rotatable=0;points=[[0,0.5],[1,0.5]];portConstraint=eastwest;whiteSpace=wrap;html=1;" parent="LsRqczpOVmUBsD9hHsLJ-109" vertex="1">
          <mxGeometry y="112" width="320" height="26" as="geometry" />
        </mxCell>
        <mxCell id="LsRqczpOVmUBsD9hHsLJ-117" value="&amp;nbsp;+ getPoints(int): int" style="text;whiteSpace=wrap;html=1;" parent="LsRqczpOVmUBsD9hHsLJ-109" vertex="1">
          <mxGeometry y="138" width="320" height="22" as="geometry" />
        </mxCell>
        <mxCell id="LsRqczpOVmUBsD9hHsLJ-141" value="+ checkData():&amp;nbsp;pair&amp;lt;string,float&amp;gt;[]" style="text;strokeColor=none;fillColor=none;align=left;verticalAlign=top;spacingLeft=4;spacingRight=4;overflow=hidden;rotatable=0;points=[[0,0.5],[1,0.5]];portConstraint=eastwest;whiteSpace=wrap;html=1;" parent="LsRqczpOVmUBsD9hHsLJ-109" vertex="1">
          <mxGeometry y="160" width="320" height="30" as="geometry" />
        </mxCell>
        <mxCell id="BAfHyfRvFIGASAnH4QNc-2" value="" style="endArrow=none;html=1;rounded=0;" parent="1" source="LsRqczpOVmUBsD9hHsLJ-45" target="l_3ByBFCw-EJSropsq6U-14" edge="1">
          <mxGeometry width="50" height="50" relative="1" as="geometry">
            <mxPoint x="590" y="400" as="sourcePoint" />
            <mxPoint x="489.3600000000001" y="787.008" as="targetPoint" />
          </mxGeometry>
        </mxCell>
        <mxCell id="BAfHyfRvFIGASAnH4QNc-4" value="" style="endArrow=none;html=1;rounded=0;exitX=0.5;exitY=0;exitDx=0;exitDy=0;" parent="1" source="LsRqczpOVmUBsD9hHsLJ-21" target="LsRqczpOVmUBsD9hHsLJ-39" edge="1">
          <mxGeometry width="50" height="50" relative="1" as="geometry">
            <mxPoint x="590" y="400" as="sourcePoint" />
            <mxPoint x="640" y="350" as="targetPoint" />
          </mxGeometry>
        </mxCell>
        <mxCell id="BAfHyfRvFIGASAnH4QNc-7" value="n" style="text;html=1;strokeColor=none;fillColor=none;align=center;verticalAlign=middle;whiteSpace=wrap;rounded=0;" parent="1" vertex="1">
          <mxGeometry x="400" y="1000" width="60" height="20" as="geometry" />
        </mxCell>
        <mxCell id="BAfHyfRvFIGASAnH4QNc-8" value="1" style="text;html=1;strokeColor=none;fillColor=none;align=center;verticalAlign=middle;whiteSpace=wrap;rounded=0;" parent="1" vertex="1">
          <mxGeometry x="340" y="1000" width="60" height="20" as="geometry" />
        </mxCell>
        <mxCell id="BAfHyfRvFIGASAnH4QNc-9" value="n" style="text;html=1;strokeColor=none;fillColor=none;align=center;verticalAlign=middle;whiteSpace=wrap;rounded=0;" parent="1" vertex="1">
          <mxGeometry x="500" y="356" width="60" height="20" as="geometry" />
        </mxCell>
        <mxCell id="BAfHyfRvFIGASAnH4QNc-10" value="0,1" style="text;html=1;strokeColor=none;fillColor=none;align=center;verticalAlign=middle;whiteSpace=wrap;rounded=0;" parent="1" vertex="1">
          <mxGeometry x="500" y="316" width="60" height="20" as="geometry" />
        </mxCell>
        <mxCell id="BAfHyfRvFIGASAnH4QNc-11" value="" style="endArrow=none;html=1;rounded=0;entryX=0.5;entryY=0;entryDx=0;entryDy=0;" parent="1" source="LsRqczpOVmUBsD9hHsLJ-21" target="LsRqczpOVmUBsD9hHsLJ-13" edge="1">
          <mxGeometry width="50" height="50" relative="1" as="geometry">
            <mxPoint x="540" y="600" as="sourcePoint" />
            <mxPoint x="660" y="340" as="targetPoint" />
          </mxGeometry>
        </mxCell>
        <mxCell id="BAfHyfRvFIGASAnH4QNc-12" value="0,n" style="text;html=1;strokeColor=none;fillColor=none;align=center;verticalAlign=middle;whiteSpace=wrap;rounded=0;" parent="1" vertex="1">
          <mxGeometry x="500" y="640" width="60" height="20" as="geometry" />
        </mxCell>
        <mxCell id="BAfHyfRvFIGASAnH4QNc-13" value="1" style="text;html=1;strokeColor=none;fillColor=none;align=center;verticalAlign=middle;whiteSpace=wrap;rounded=0;" parent="1" vertex="1">
          <mxGeometry x="500" y="602" width="60" height="18" as="geometry" />
        </mxCell>
        <mxCell id="BAfHyfRvFIGASAnH4QNc-14" value="" style="endArrow=classic;html=1;rounded=0;entryX=0.003;entryY=1.231;entryDx=0;entryDy=0;entryPerimeter=0;" parent="1" source="LsRqczpOVmUBsD9hHsLJ-5" target="LsRqczpOVmUBsD9hHsLJ-116" edge="1">
          <mxGeometry width="50" height="50" relative="1" as="geometry">
            <mxPoint x="100" y="340" as="sourcePoint" />
            <mxPoint x="450" y="360" as="targetPoint" />
          </mxGeometry>
        </mxCell>
        <mxCell id="BAfHyfRvFIGASAnH4QNc-15" value="" style="endArrow=classic;html=1;rounded=0;" parent="1" source="LsRqczpOVmUBsD9hHsLJ-5" target="LsRqczpOVmUBsD9hHsLJ-109" edge="1">
          <mxGeometry width="50" height="50" relative="1" as="geometry">
            <mxPoint y="373" as="sourcePoint" />
            <mxPoint x="450" y="360" as="targetPoint" />
          </mxGeometry>
        </mxCell>
        <mxCell id="BAfHyfRvFIGASAnH4QNc-16" value="" style="endArrow=classic;html=1;rounded=0;exitX=1;exitY=0.5;exitDx=0;exitDy=0;" parent="1" source="LsRqczpOVmUBsD9hHsLJ-63" target="LsRqczpOVmUBsD9hHsLJ-99" edge="1">
          <mxGeometry width="50" height="50" relative="1" as="geometry">
            <mxPoint x="400" y="410" as="sourcePoint" />
            <mxPoint x="450" y="360" as="targetPoint" />
          </mxGeometry>
        </mxCell>
        <mxCell id="BAfHyfRvFIGASAnH4QNc-18" value="" style="endArrow=classic;html=1;rounded=0;" parent="1" source="LsRqczpOVmUBsD9hHsLJ-104" target="LsRqczpOVmUBsD9hHsLJ-21" edge="1">
          <mxGeometry width="50" height="50" relative="1" as="geometry">
            <mxPoint x="400" y="420" as="sourcePoint" />
            <mxPoint x="450" y="370" as="targetPoint" />
          </mxGeometry>
        </mxCell>
        <mxCell id="BAfHyfRvFIGASAnH4QNc-19" value="" style="endArrow=classic;html=1;rounded=0;entryX=0;entryY=0.5;entryDx=0;entryDy=0;" parent="1" source="LsRqczpOVmUBsD9hHsLJ-104" target="LsRqczpOVmUBsD9hHsLJ-14" edge="1">
          <mxGeometry width="50" height="50" relative="1" as="geometry">
            <mxPoint x="400" y="420" as="sourcePoint" />
            <mxPoint x="450" y="370" as="targetPoint" />
          </mxGeometry>
        </mxCell>
        <mxCell id="BAfHyfRvFIGASAnH4QNc-20" value="" style="endArrow=classic;html=1;rounded=0;" parent="1" source="LsRqczpOVmUBsD9hHsLJ-109" target="LsRqczpOVmUBsD9hHsLJ-39" edge="1">
          <mxGeometry width="50" height="50" relative="1" as="geometry">
            <mxPoint x="400" y="420" as="sourcePoint" />
            <mxPoint x="450" y="370" as="targetPoint" />
          </mxGeometry>
        </mxCell>
        <mxCell id="BAfHyfRvFIGASAnH4QNc-22" value="" style="endArrow=classic;html=1;rounded=0;" parent="1" source="LsRqczpOVmUBsD9hHsLJ-109" target="LsRqczpOVmUBsD9hHsLJ-104" edge="1">
          <mxGeometry width="50" height="50" relative="1" as="geometry">
            <mxPoint x="-110" y="350" as="sourcePoint" />
            <mxPoint x="-60" y="300" as="targetPoint" />
          </mxGeometry>
        </mxCell>
        <mxCell id="BAfHyfRvFIGASAnH4QNc-23" value="" style="endArrow=classic;html=1;rounded=0;" parent="1" source="LsRqczpOVmUBsD9hHsLJ-99" target="LsRqczpOVmUBsD9hHsLJ-104" edge="1">
          <mxGeometry width="50" height="50" relative="1" as="geometry">
            <mxPoint x="-30" y="530" as="sourcePoint" />
            <mxPoint x="20" y="480" as="targetPoint" />
          </mxGeometry>
        </mxCell>
        <mxCell id="l_3ByBFCw-EJSropsq6U-14" value="Provider" style="swimlane;fontStyle=1;align=center;verticalAlign=top;childLayout=stackLayout;horizontal=1;startSize=26;horizontalStack=0;resizeParent=1;resizeParentMax=0;resizeLast=0;collapsible=1;marginBottom=0;whiteSpace=wrap;html=1;" parent="1" vertex="1">
          <mxGeometry x="200" y="951" width="160" height="138" as="geometry" />
        </mxCell>
        <mxCell id="l_3ByBFCw-EJSropsq6U-15" value="- id: string" style="text;strokeColor=none;fillColor=none;align=left;verticalAlign=top;spacingLeft=4;spacingRight=4;overflow=hidden;rotatable=0;points=[[0,0.5],[1,0.5]];portConstraint=eastwest;whiteSpace=wrap;html=1;" parent="l_3ByBFCw-EJSropsq6U-14" vertex="1">
          <mxGeometry y="26" width="160" height="26" as="geometry" />
        </mxCell>
        <mxCell id="l_3ByBFCw-EJSropsq6U-18" value="- cleaners: Cleaner[]" style="text;strokeColor=none;fillColor=none;align=left;verticalAlign=top;spacingLeft=4;spacingRight=4;overflow=hidden;rotatable=0;points=[[0,0.5],[1,0.5]];portConstraint=eastwest;whiteSpace=wrap;html=1;" parent="l_3ByBFCw-EJSropsq6U-14" vertex="1">
          <mxGeometry y="52" width="160" height="26" as="geometry" />
        </mxCell>
        <mxCell id="l_3ByBFCw-EJSropsq6U-16" value="" style="line;strokeWidth=1;fillColor=none;align=left;verticalAlign=middle;spacingTop=-1;spacingLeft=3;spacingRight=3;rotatable=0;labelPosition=right;points=[];portConstraint=eastwest;strokeColor=inherit;" parent="l_3ByBFCw-EJSropsq6U-14" vertex="1">
          <mxGeometry y="78" width="160" height="8" as="geometry" />
        </mxCell>
        <mxCell id="l_3ByBFCw-EJSropsq6U-17" value="+ Provider(string)" style="text;strokeColor=none;fillColor=none;align=left;verticalAlign=top;spacingLeft=4;spacingRight=4;overflow=hidden;rotatable=0;points=[[0,0.5],[1,0.5]];portConstraint=eastwest;whiteSpace=wrap;html=1;" parent="l_3ByBFCw-EJSropsq6U-14" vertex="1">
          <mxGeometry y="86" width="160" height="26" as="geometry" />
        </mxCell>
        <mxCell id="l_3ByBFCw-EJSropsq6U-23" value="+ addCleaner(Cleaner)" style="text;strokeColor=none;fillColor=none;align=left;verticalAlign=top;spacingLeft=4;spacingRight=4;overflow=hidden;rotatable=0;points=[[0,0.5],[1,0.5]];portConstraint=eastwest;whiteSpace=wrap;html=1;" parent="l_3ByBFCw-EJSropsq6U-14" vertex="1">
          <mxGeometry y="112" width="160" height="26" as="geometry" />
        </mxCell>
        <mxCell id="NWTO-miKodCEe6t-mbwZ-1" value="" style="endArrow=classic;html=1;rounded=0;entryX=0.5;entryY=0;entryDx=0;entryDy=0;" parent="1" source="LsRqczpOVmUBsD9hHsLJ-99" target="l_3ByBFCw-EJSropsq6U-14" edge="1">
          <mxGeometry width="50" height="50" relative="1" as="geometry">
            <mxPoint x="190" y="920" as="sourcePoint" />
            <mxPoint x="330" y="610" as="targetPoint" />
          </mxGeometry>
        </mxCell>
        <mxCell id="PDT4Lqg7wsaP4X1sndd0-3" value="" style="rounded=0;whiteSpace=wrap;html=1;" vertex="1" parent="1">
          <mxGeometry x="130" y="610" width="120" height="60" as="geometry" />
        </mxCell>
        <mxCell id="PDT4Lqg7wsaP4X1sndd0-4" value="" style="rounded=0;whiteSpace=wrap;html=1;fillColor=none;strokeWidth=4;strokeColor=#00ff00;" vertex="1" parent="1">
          <mxGeometry x="-290" y="60" width="340" height="150" as="geometry" />
        </mxCell>
        <mxCell id="PDT4Lqg7wsaP4X1sndd0-6" value="View" style="text;strokeColor=none;fillColor=none;html=1;fontSize=24;fontStyle=1;verticalAlign=middle;align=center;" vertex="1" parent="1">
          <mxGeometry x="-290" y="70" width="100" height="40" as="geometry" />
        </mxCell>
        <mxCell id="PDT4Lqg7wsaP4X1sndd0-7" value="" style="rounded=0;whiteSpace=wrap;html=1;fillColor=none;strokeWidth=4;strokeColor=#0000FF;" vertex="1" parent="1">
          <mxGeometry x="-290" y="390" width="340" height="400" as="geometry" />
        </mxCell>
        <mxCell id="PDT4Lqg7wsaP4X1sndd0-8" value="Controller" style="text;strokeColor=none;fillColor=none;html=1;fontSize=24;fontStyle=1;verticalAlign=middle;align=center;" vertex="1" parent="1">
          <mxGeometry x="-260" y="398" width="100" height="40" as="geometry" />
        </mxCell>
        <mxCell id="PDT4Lqg7wsaP4X1sndd0-9" value="" style="rounded=0;whiteSpace=wrap;html=1;fillColor=none;strokeWidth=4;strokeColor=#ff0000;" vertex="1" parent="1">
          <mxGeometry x="70" y="60" width="580" height="1070" as="geometry" />
        </mxCell>
        <mxCell id="PDT4Lqg7wsaP4X1sndd0-10" value="Model" style="text;strokeColor=none;fillColor=none;html=1;fontSize=24;fontStyle=1;verticalAlign=middle;align=center;" vertex="1" parent="1">
          <mxGeometry x="80" y="70" width="100" height="40" as="geometry" />
        </mxCell>
      </root>
    </mxGraphModel>
  </diagram>
</mxfile>
